<?xml version="1.0" encoding="UTF-8" standalone="no"?>
<!-- Generator: Adobe Illustrator 18.0.0, SVG Export Plug-In . SVG Version: 6.00 Build 0)  -->

<svg
   xmlns:dc="http://purl.org/dc/elements/1.1/"
   xmlns:cc="http://creativecommons.org/ns#"
   xmlns:rdf="http://www.w3.org/1999/02/22-rdf-syntax-ns#"
   xmlns:svg="http://www.w3.org/2000/svg"
   xmlns="http://www.w3.org/2000/svg"
   xmlns:sodipodi="http://sodipodi.sourceforge.net/DTD/sodipodi-0.dtd"
   xmlns:inkscape="http://www.inkscape.org/namespaces/inkscape"
   version="1.1"
   id="Capa_1"
   x="0px"
   y="0px"
   viewBox="0 0 419.955 419.955"
   style="enable-background:new 0 0 419.955 419.955;"
   xml:space="preserve"
   inkscape:version="0.91 r13725"
   sodipodi:docname="phatom.platform.svg"><metadata
     id="metadata45"><rdf:RDF><cc:Work
         rdf:about=""><dc:format>image/svg+xml</dc:format><dc:type
           rdf:resource="http://purl.org/dc/dcmitype/StillImage" /><dc:title /></cc:Work></rdf:RDF></metadata><defs
     id="defs43" /><sodipodi:namedview
     pagecolor="#ffffff"
     bordercolor="#666666"
     borderopacity="1"
     objecttolerance="10"
     gridtolerance="10"
     guidetolerance="10"
     inkscape:pageopacity="0"
     inkscape:pageshadow="2"
     inkscape:window-width="1366"
     inkscape:window-height="693"
     id="namedview41"
     showgrid="false"
     inkscape:zoom="0.56196499"
     inkscape:cx="3.907808"
     inkscape:cy="117.23069"
     inkscape:window-x="0"
     inkscape:window-y="24"
     inkscape:window-maximized="1"
     inkscape:current-layer="Capa_1" /><g
     id="g11" /><g
     id="g13" /><g
     id="g15" /><g
     id="g17" /><g
     id="g19" /><g
     id="g21" /><g
     id="g23" /><g
     id="g25" /><g
     id="g27" /><g
     id="g29" /><g
     id="g31" /><g
     id="g33" /><g
     id="g35" /><g
     id="g37" /><g
     id="g39" /><path
     style="opacity:0.97000002;fill:#2c3234;fill-opacity:1;fill-rule:nonzero;stroke:none;stroke-width:5;stroke-linecap:round;stroke-linejoin:round;stroke-miterlimit:4;stroke-dasharray:none;stroke-dashoffset:0;stroke-opacity:1"
     d="m 23.9678,17.194223 c 22.738901,-25.0174311 352.52816,-18.5186191 376.80862,0.674165 23.57798,18.637502 28.78075,366.496582 4.60349,383.688302 -30.03564,21.35743 -360.823276,20.62837 -385.481057,0 C -7.3166144,378.78861 2.1523866,41.195629 23.9678,17.194223 Z"
     id="rect4207"
     inkscape:connector-curvature="0"
     sodipodi:nodetypes="sssss" /><g
     id="g5643"
     transform="matrix(0.87657139,0,0,0.87657139,-491.36909,-205.50707)"><path
       style="fill:#ff5921;fill-opacity:1;stroke:none;stroke-opacity:1"
       d="m 802.62577,262.97958 c -95.395,0 -173.005,77.609 -173.005,173.004 l 0,236.951 c 0,5.522 4.477,10 10,10 17.067,0 26.113,-7.169 33.381,-12.931 6.302,-4.995 10.856,-8.604 20.958,-8.604 10.102,0 14.656,3.609 20.958,8.604 7.268,5.761 16.314,12.93 33.381,12.93 17.066,0 26.11,-7.17 33.378,-12.931 6.301,-4.995 10.854,-8.604 20.954,-8.604 10.101,0 14.654,3.609 20.955,8.604 7.268,5.761 16.313,12.931 33.379,12.931 17.06499,0 26.10999,-7.17 33.37699,-12.931 6.301,-4.995 10.854,-8.604 20.954,-8.604 10.1,0 14.652,3.609 20.954,8.604 7.267,5.761 16.312,12.931 33.377,12.931 5.522,0 10,-4.477 10,-9.999 l 0.002,-236.951 c 10e-4,-95.395 -77.608,-173.004 -173.00299,-173.004 z m 153.00299,398.336 c -4.061,-1.521 -7.197,-4.007 -10.954,-6.985 -7.267,-5.761 -16.312,-12.931 -33.377,-12.931 -17.065,0 -26.11,7.17 -33.377,12.931 -6.301,4.995 -10.854,8.604 -20.95399,8.604 -10.101,0 -14.654,-3.609 -20.955,-8.604 -7.268,-5.761 -16.313,-12.931 -33.379,-12.931 -17.066,0 -26.11,7.17 -33.378,12.931 -6.301,4.995 -10.854,8.604 -20.954,8.604 -10.102,0 -14.656,-3.609 -20.958,-8.604 -7.268,-5.761 -16.314,-12.931 -33.381,-12.931 -17.067,0 -26.113,7.169 -33.381,12.93 -3.759,2.979 -6.896,5.466 -10.958,6.987 l 0,-225.333 c -0.002,-84.366 68.635,-153.00401 153.003,-153.00401 84.36699,0 153.00399,68.63801 153.00399,153.00401 l -10e-4,225.332 z"
       id="path5"
       inkscape:connector-curvature="0" /><path
       sodipodi:nodetypes="cccccc"
       inkscape:connector-curvature="0"
       id="path5-3"
       d="m 681.4996,389.24203 90.15127,63.37533 c -47.86229,34.87696 -111.2915,-2.85068 -90.15127,-63.37533 z m 151.50174,62.06742 93.48347,-58.34791 c 17.804,61.58807 -47.59757,95.79185 -93.48347,58.34791 z"
       style="fill:#ff5921;fill-opacity:1" /><path
       sodipodi:nodetypes="ccccccccccccccccccc"
       inkscape:connector-curvature="0"
       id="path5-6"
       d="m 909.04317,547.63951 0,0 c -6.44796,17.18843 -17.83199,34.66938 -34.19208,52.45209 l -12.62496,-20.02133 -29.61324,32.94807 -19.89817,-35.14667 -30.21676,38.51229 -11.30704,-46.038 -29.29607,29.87189 -10.82358,-55.36199 -31.4762,27.15597 -2.14932,-48.84628 -13.93673,10.34324 c -1.66279,-8.89906 -2.89758,-25.03437 -3.67663,-48.38439 17.96748,34.75251 49.50217,59.1187 94.61947,73.04618 6.39254,1.54578 13.97366,2.78057 22.75879,3.71666 39.91643,4.26786 77.20933,-0.48652 111.83252,-14.24773 l 0,0 z"
       style="fill:#ff5921;fill-opacity:1" /></g></svg>