<?xml version="1.0" standalone="no"?>
<!DOCTYPE svg PUBLIC "-//W3C//DTD SVG 20010904//EN"
 "http://www.w3.org/TR/2001/REC-SVG-20010904/DTD/svg10.dtd">
<svg version="1.0" xmlns="http://www.w3.org/2000/svg"
 width="420.000000pt" height="420.000000pt" viewBox="0 0 420.000000 420.000000"
 preserveAspectRatio="xMidYMid meet">
<metadata>
Created by potrace 1.11, written by Peter Selinger 2001-2013
</metadata>
<g transform="translate(0.000000,420.000000) scale(0.100000,-0.100000)"
fill="#000000" stroke="none">
<path d="M1328 4185 c-1 -2 -75 -6 -163 -10 -88 -4 -176 -8 -195 -10 -19 -2
-73 -6 -120 -9 -47 -4 -101 -9 -120 -11 -19 -2 -60 -7 -90 -10 -30 -4 -62 -8
-70 -10 -8 -2 -35 -7 -60 -10 -81 -12 -200 -43 -232 -62 -17 -10 -39 -29 -49
-43 -18 -25 -62 -178 -74 -255 -3 -22 -7 -47 -10 -55 -2 -8 -6 -37 -9 -65 -3
-27 -10 -81 -15 -120 -5 -38 -12 -99 -16 -135 -3 -36 -8 -85 -10 -110 -2 -25
-7 -76 -10 -115 -3 -38 -7 -92 -9 -120 -3 -27 -8 -113 -12 -190 -3 -77 -8
-162 -9 -190 -25 -444 -25 -1481 0 -1725 2 -19 6 -78 10 -130 3 -52 8 -106 10
-120 2 -14 6 -52 10 -85 11 -100 44 -266 65 -325 24 -68 56 -98 123 -119 69
-21 102 -28 225 -45 110 -16 170 -23 262 -31 61 -5 106 -8 290 -20 76 -5 302
-14 485 -20 139 -5 655 -8 920 -5 151 1 224 5 234 13 10 8 13 8 8 1 -5 -8 12
-11 56 -9 34 2 141 6 239 10 97 4 196 8 220 10 23 2 86 7 138 10 52 4 111 8
130 10 19 2 67 7 105 11 66 6 273 37 324 48 55 12 127 37 142 49 48 37 94 222
114 462 3 39 8 80 10 92 15 88 20 392 20 1123 0 929 -3 1030 -50 1540 -4 41
-8 89 -10 105 -2 17 -7 50 -10 74 -3 23 -7 57 -10 75 -45 268 -71 344 -125
375 -55 30 -231 68 -405 86 -57 6 -151 15 -215 20 -30 2 -82 7 -115 10 -78 7
-171 13 -323 20 -68 4 -162 9 -210 11 -102 6 -1389 14 -1394 9z"/>
</g>
</svg>
